<?xml version="1.0" standalone="no"?>
<!DOCTYPE svg PUBLIC "-//W3C//DTD SVG 20010904//EN"
 "http://www.w3.org/TR/2001/REC-SVG-20010904/DTD/svg10.dtd">
<svg version="1.0" xmlns="http://www.w3.org/2000/svg"
 width="512.000000pt" height="512.000000pt" viewBox="0 0 512.000000 512.000000"
 preserveAspectRatio="xMidYMid meet">
<metadata>
Created by potrace 1.14, written by Peter Selinger 2001-2017
</metadata>
<g transform="translate(0.000000,512.000000) scale(0.100000,-0.100000)"
fill="#000000" stroke="none">
<path d="M2505 4233 c-72 -8 -196 -46 -302 -94 -24 -10 -45 -19 -47 -19 -2 0
-21 -8 -42 -17 -22 -9 -43 -18 -49 -19 -5 -1 -100 -38 -210 -82 -110 -44 -366
-146 -570 -226 -203 -81 -379 -151 -390 -156 -23 -10 -607 -241 -735 -290
-113 -44 -153 -82 -156 -147 -2 -56 15 -94 53 -121 16 -10 89 -42 163 -71 74
-29 145 -56 158 -61 12 -5 22 -18 23 -27 0 -10 1 -210 1 -446 l1 -427 -36 -36
c-67 -68 -94 -162 -70 -254 13 -52 43 -104 72 -126 17 -13 17 -15 -49 -326
-17 -81 -32 -164 -34 -185 -7 -76 51 -168 124 -200 47 -20 212 -24 263 -7 50
18 87 47 114 92 42 69 40 94 -33 437 -2 11 -11 54 -19 96 l-16 76 35 37 c63
69 79 201 36 287 -11 21 -36 54 -55 74 l-35 35 2 384 3 384 60 -24 c225 -88
1204 -476 1220 -483 91 -41 374 -147 429 -162 86 -22 217 -22 300 2 49 13 694
264 771 299 11 5 106 43 210 84 278 108 725 286 760 300 17 8 154 62 305 121
151 60 289 119 307 132 61 45 69 147 14 199 -19 17 -139 70 -357 156 -181 71
-338 134 -349 139 -11 5 -209 83 -440 175 -231 91 -593 235 -805 319 -212 83
-407 157 -435 163 -55 13 -143 20 -190 15z"/>
<path d="M972 2013 c3 -450 3 -459 25 -504 79 -164 255 -300 526 -408 122 -49
315 -101 467 -126 19 -3 60 -10 90 -15 30 -5 87 -12 125 -16 39 -3 86 -8 105
-10 57 -6 419 -6 495 1 167 14 285 30 380 49 114 24 208 47 225 56 11 6 20 9
20 6 0 -11 185 60 290 110 198 97 329 207 391 332 l34 67 3 458 c1 252 -1 456
-6 453 -4 -2 -129 -53 -278 -111 -608 -240 -781 -308 -811 -321 -119 -52 -273
-105 -340 -118 -98 -19 -255 -15 -348 9 -38 10 -268 96 -510 192 -242 96 -537
213 -655 259 -118 47 -218 88 -222 91 -5 2 -7 -202 -6 -454z"/>
</g>
</svg>
